<svg xmlns="http://www.w3.org/2000/svg" xmlns:xlink="http://www.w3.org/1999/xlink" version="1.1" x="0px" y="0px" viewBox="0 0 100 125" enable-background="new 0 0 100 100" xml:space="preserve"><path d="M94,31v-2h1v-1h-1v-2h-2v2h-1v-2h-2v2h-2v-1v-6h-4v6h3v1H66v1h0.375v3.952L61,39v8h11v-8  l-5.375-6.048V29h12.213L85,35.162V47h-3v2c-1.778,0-3,0-3,0v8H30v-8V29h-3.75v-3.01c0.605-0.032,2.347-0.189,4.75-0.99  c-1.657,0-3.995-1.37-4.75-1.841V23h-0.5v6H23v10h-6v10H5c0,0,17,9,17,17c3,0,60,0,63,0c0-4,6-11,10-11c0-4,0-6,0-6  c-0.932,0-2.828,0-5,0v-2h-3V29h2v2h2v-2h1v2H94z M61.359,39l5.141-5.815L71.672,39H61.359z M20,45h-2v-2h2V45z M20,42h-2v-2h2V42z   M23,45h-2v-2h2V45z M23,42h-2v-2h2V42z M26,45h-2v-2h2V45z M26,42h-2v-2h2V42z M26,39h-2v-2h2V39z M26,36h-2v-2h2V36z M29,45h-2v-2  h2V45z M29,42h-2v-2h2V42z M29,39h-2v-2h2V39z M29,36h-2v-2h2V36z M29,33h-5v-3h5V33z M84,25v-3h2v3H84z M79.193,29H85v5.807  L79.193,29z"/><path d="M31,48v8h11v-8H31z M33,55h-1v-6h1V55z M35,55h-1v-6h1V55z M37,55h-1v-6h1V55z M39,55h-1v-6h1V55z   M41,55h-1v-6h1V55z"/><rect x="43" y="48" width="11" height="8"/><rect x="55" y="48" width="11" height="8"/><rect x="67" y="48" width="11" height="8"/><rect x="49" y="39" width="11" height="8"/><rect x="37" y="39" width="11" height="8"/><text x="0" y="115" fill="#000000" font-size="5px" font-weight="bold" font-family="'Helvetica Neue', Helvetica, Arial-Unicode, Arial, Sans-serif">Created by Jaime Carrion</text><text x="0" y="120" fill="#000000" font-size="5px" font-weight="bold" font-family="'Helvetica Neue', Helvetica, Arial-Unicode, Arial, Sans-serif">from the Noun Project</text></svg>